<svg id="Capa_1" data-name="Capa 1" xmlns="http://www.w3.org/2000/svg" viewBox="0 0 1000 1000"><defs><style>.cls-1{fill:#826744;}.cls-2{fill:#d8ad38;}</style></defs><path class="cls-1" d="M362.84,519.41V498.1a11.64,11.64,0,1,0-23.27,0v21.31a143.47,143.47,0,0,0,17.7,69,11.64,11.64,0,0,0,20.39-11.23A120,120,0,0,1,362.84,519.41Z"/><path class="cls-1" d="M417.66,620.25a121.44,121.44,0,0,1-18.45-14.77A11.63,11.63,0,1,0,383,622.14a145.09,145.09,0,0,0,22,17.61,11.63,11.63,0,0,0,12.69-19.5Z"/><path class="cls-1" d="M426.2,329.38c12.17,9.7,19.62,16.32,19.62,29.54a9.7,9.7,0,0,0,19.4,0c0-23.23-14.93-35.13-26.93-44.7-12.16-9.7-19.62-16.31-19.62-29.53s7.46-19.83,19.62-29.53c12-9.57,26.93-21.47,26.93-44.69a9.7,9.7,0,0,0-19.4,0c0,13.21-7.45,19.83-19.62,29.52-12,9.57-26.92,21.47-26.92,44.7S414.21,319.82,426.2,329.38Z"/><path class="cls-1" d="M513.4,292.78c12.17,9.7,19.62,16.31,19.62,29.53a9.7,9.7,0,0,0,19.39,0c0-23.23-14.92-35.13-26.92-44.69-12.16-9.71-19.62-16.32-19.62-29.54s7.46-19.83,19.62-29.53c12-9.57,26.92-21.47,26.92-44.69a9.7,9.7,0,1,0-19.39,0c0,13.21-7.45,19.83-19.62,29.53-12,9.56-26.92,21.46-26.92,44.69S501.41,283.21,513.4,292.78Z"/><path class="cls-1" d="M707.77,447.68H642.66l.23,71.73c0,87.68-71.34,159-159,159h-8.56c-87.68,0-159-71.33-159-159,0,0,.88-64,1.24-71.73H293v71.73c0,100.51,81.77,182.28,182.28,182.28h8.56c78.45,0,145.48-49.81,171.13-119.47h52.77a67.27,67.27,0,0,0,0-134.54Zm0,111.27h-46a182.1,182.1,0,0,0,4.37-39.54V471h41.61a44,44,0,0,1,0,88Z"/><path class="cls-1" d="M690.9,742.35H288.61a11.64,11.64,0,0,1,0-23.27H690.9a11.64,11.64,0,1,1,0,23.27Z"/><path class="cls-1" d="M317.16,384c21.67,13.6,45.19,26.77,66.34,40.51,7.55,4.9,14.37,5.77,22.68,2.47q74.26-29.51,148.67,0c8.31,3.31,14.58,4.46,21.89-.75,21.08-15.05,46-28.7,65.43-42.23.32,2.64.77,29.85.81,48.08.87-.25,14.65.21,23.07,0,0-20.13-.08-28.39.14-48.52.13-11.74-3.21-21.3-13.86-27.08-11-5.94-21.07-3.42-30.84,3.53q-27.18,19.35-54.81,38.06a11.76,11.76,0,0,1-9.15,1.17c-51.49-18.12-103-18.38-154.42-.14-4.77,1.69-8,1.12-12-1.71-18.31-13.06-36.82-25.82-55.27-38.68-9-6.24-18.5-7.61-28.32-2.47-10.06,5.26-14.46,14-14.46,25.24,0,21.11,0,29.5-.05,50.6h24.13C317.22,414,316.92,386.41,317.16,384Z"/><path class="cls-2" d="M187.92,832.25a26.75,26.75,0,0,1-10.6-10,29.15,29.15,0,0,1,0-29,26.78,26.78,0,0,1,10.6-10,31.94,31.94,0,0,1,15.23-3.58,32.67,32.67,0,0,1,13.34,2.62,25.89,25.89,0,0,1,9.87,7.55l-9.72,8.79q-5.25-6.31-12.72-6.32a15.67,15.67,0,0,0-7.83,1.93,13.34,13.34,0,0,0-5.32,5.44,18.11,18.11,0,0,0,0,16.11,13.4,13.4,0,0,0,5.32,5.44,15.77,15.77,0,0,0,7.83,1.92q7.47,0,12.72-6.32l9.72,8.79a25.82,25.82,0,0,1-9.87,7.56,32.84,32.84,0,0,1-13.34,2.62A31.94,31.94,0,0,1,187.92,832.25Z"/><path class="cls-2" d="M268.38,824.27H245.56l-4.25,10.49H225.74l23.82-54h15l23.9,54H272.62ZM263.91,813,257,795.74,250,813Z"/><path class="cls-2" d="M308.09,792.58v11.88h23.82v11.79H308.09v18.51H292.82v-54h42.33v11.79Z"/><path class="cls-2" d="M385.65,823v11.8H342.32v-54h42.33v11.79H357.43v9.1h24v11.41h-24V823ZM366.3,764.67H381l-14.49,11.72H356Z"/><path class="cls-2" d="M452.74,806.62h13.49V829a35.43,35.43,0,0,1-10.64,5.09,42.43,42.43,0,0,1-12,1.77,32.19,32.19,0,0,1-15.27-3.59,26.73,26.73,0,0,1-10.64-10,29.21,29.21,0,0,1,0-29,26.58,26.58,0,0,1,10.72-10,33,33,0,0,1,15.5-3.58,34.45,34.45,0,0,1,13.57,2.54,26.14,26.14,0,0,1,10,7.33l-9.71,8.79a17.13,17.13,0,0,0-13.11-6q-6.94,0-11.18,4.2t-4.24,11.22a16.25,16.25,0,0,0,1.93,8,13.79,13.79,0,0,0,5.39,5.48,15.85,15.85,0,0,0,7.94,2,19.58,19.58,0,0,0,8.26-1.77Z"/><path class="cls-2" d="M512.11,824.27H489.28L485,834.76H469.47l23.82-54h15l23.9,54H516.35ZM507.63,813l-6.94-17.28L493.75,813Z"/><path class="cls-2" d="M560.14,820.42h-8.33v14.34H536.55v-54h24.67a30.91,30.91,0,0,1,12.72,2.42A19.63,19.63,0,0,1,582.46,811a18.49,18.49,0,0,1-7.82,6.83l11.64,17H569.93Zm7.25-25.52c-1.59-1.39-4-2.09-7.09-2.09h-8.49v15.81h8.49c3.13,0,5.5-.68,7.09-2a7.24,7.24,0,0,0,2.39-5.82A7.35,7.35,0,0,0,567.39,794.9Z"/><path class="cls-2" d="M617.2,820.42h-8.33v14.34H593.6v-54h24.68A30.94,30.94,0,0,1,631,783.21a18.28,18.28,0,0,1,11.26,17.55A18.74,18.74,0,0,1,639.52,811a18.46,18.46,0,0,1-7.83,6.83l11.65,17H627Zm7.25-25.52c-1.6-1.39-4-2.09-7.1-2.09h-8.48v15.81h8.48c3.14,0,5.5-.68,7.1-2a7.24,7.24,0,0,0,2.39-5.82A7.35,7.35,0,0,0,624.45,794.9Z"/><path class="cls-2" d="M650.66,780.79h15.27v54H650.66Z"/><path class="cls-2" d="M688.29,792.89H671.71v-12.1h48.35v12.1h-16.5v41.87H688.29Z"/><path class="cls-2" d="M759.23,824.27H736.4l-4.24,10.49H716.59l23.82-54h15l23.9,54H763.47ZM754.75,813l-6.94-17.28L740.88,813Z"/><path class="cls-2" d="M789.91,834.22a31.28,31.28,0,0,1-10-4.32l5-11.26a32.39,32.39,0,0,0,8.41,3.86,31.82,31.82,0,0,0,9.4,1.46q8.79,0,8.79-4.39a3.63,3.63,0,0,0-2.5-3.43,45.55,45.55,0,0,0-8.06-2.35A76.92,76.92,0,0,1,790.76,811a17.1,17.1,0,0,1-7-4.82c-2-2.21-2.93-5.19-2.93-8.94a15.49,15.49,0,0,1,2.69-8.91,18.11,18.11,0,0,1,8.06-6.28,33.22,33.22,0,0,1,13.15-2.31,46.66,46.66,0,0,1,10.48,1.19,32.2,32.2,0,0,1,9.1,3.51l-4.7,11.33a31.49,31.49,0,0,0-15-4.16q-4.54,0-6.63,1.35a4,4,0,0,0-2.08,3.51c0,1.44.82,2.52,2.47,3.24a44.43,44.43,0,0,0,7.94,2.23,74.13,74.13,0,0,1,10.21,2.82,17.57,17.57,0,0,1,7,4.78q3,3.27,3,8.9a15.17,15.17,0,0,1-2.7,8.79,18.44,18.44,0,0,1-8.1,6.29,32.82,32.82,0,0,1-13.1,2.35A50,50,0,0,1,789.91,834.22Z"/></svg>