<svg id="Capa_1" data-name="Capa 1" xmlns="http://www.w3.org/2000/svg" viewBox="0 0 1000 1000"><defs><style>.cls-1{fill:#fff;}</style></defs><path class="cls-1" d="M295.79,528.89V497.17a17.32,17.32,0,1,0-34.64,0v31.72A213.6,213.6,0,0,0,287.5,631.63a17.33,17.33,0,0,0,30.35-16.72A178.79,178.79,0,0,1,295.79,528.89Z"/><path class="cls-1" d="M377.42,679a180.65,180.65,0,0,1-27.48-22,17.32,17.32,0,0,0-24.18,24.81,216.22,216.22,0,0,0,32.75,26.21,17.32,17.32,0,0,0,18.91-29Z"/><path class="cls-1" d="M390.13,246c18.11,14.45,29.21,24.29,29.21,44a14.44,14.44,0,1,0,28.87,0c0-34.58-22.22-52.3-40.08-66.54-18.11-14.44-29.21-24.29-29.21-44s11.1-29.53,29.21-44c17.86-14.24,40.08-31.95,40.08-66.53a14.44,14.44,0,1,0-28.87,0c0,19.67-11.1,29.52-29.21,44-17.86,14.24-40.08,32-40.08,66.55S372.27,231.74,390.13,246Z"/><path class="cls-1" d="M520,191.49c18.11,14.43,29.21,24.28,29.21,44a14.44,14.44,0,0,0,28.87,0c0-34.58-22.22-52.3-40.08-66.54-18.11-14.44-29.21-24.29-29.21-44S519.84,95.42,538,81C555.81,66.73,578,49,578,14.44a14.44,14.44,0,1,0-28.87,0c0,19.67-11.1,29.52-29.21,44-17.86,14.24-40.08,32-40.08,66.54S502.09,177.24,520,191.49Z"/><path class="cls-1" d="M809.33,422.1H712.39l.35,106.79c0,130.54-106.21,236.75-236.75,236.75H463.25c-130.55,0-236.75-106.21-236.75-236.75,0,0,1.31-95.26,1.85-106.79h-36.5V528.89c0,149.65,121.75,271.39,271.4,271.39H476c116.8,0,216.59-74.17,254.78-177.87h78.56a100.16,100.16,0,0,0,0-200.31Zm0,165.66H740.88a271.35,271.35,0,0,0,6.5-58.87V456.75h62a65.51,65.51,0,0,1,0,131Z"/><path class="cls-1" d="M784.21,860.81H185.29a17.33,17.33,0,1,1,0-34.65H784.21a17.33,17.33,0,1,1,0,34.65Z"/><path class="cls-1" d="M227.79,327.22c32.26,20.25,67.28,39.86,98.76,60.31,11.24,7.3,21.4,8.6,33.76,3.69q110.58-43.94,221.34,0c12.38,4.92,21.72,6.65,32.6-1.12,31.38-22.4,68.55-42.73,97.42-62.87.47,3.93,1.14,44.44,1.19,71.59,1.3-.37,21.82.31,34.36,0-.06-30-.13-42.28.21-72.24.19-17.48-4.79-31.71-20.64-40.31-16.3-8.85-31.36-5.1-45.91,5.25q-40.47,28.82-81.6,56.66A17.46,17.46,0,0,1,585.66,350c-76.67-27-153.32-27.37-229.91-.21-7.1,2.52-11.93,1.67-17.84-2.55-27.25-19.43-54.82-38.43-82.28-57.57-13.35-9.3-27.55-11.33-42.17-3.69-15,7.83-21.53,20.82-21.52,37.59,0,31.42,0,43.9-.09,75.33,14.19,0,21.42,0,35.94,0C227.87,371.88,227.43,330.88,227.79,327.22Z"/><path class="cls-1" d="M35.37,994.66A39.85,39.85,0,0,1,19.59,979.8a43.45,43.45,0,0,1,0-43.17,39.85,39.85,0,0,1,15.78-14.86A47.54,47.54,0,0,1,58,916.43a48.68,48.68,0,0,1,19.86,3.9,38.46,38.46,0,0,1,14.7,11.25L78.13,944.67q-7.8-9.42-18.94-9.41a23.29,23.29,0,0,0-11.65,2.87,19.84,19.84,0,0,0-7.92,8.09,26.92,26.92,0,0,0,0,24,19.84,19.84,0,0,0,7.92,8.09,23.29,23.29,0,0,0,11.65,2.87q11.13,0,18.94-9.41L92.6,984.85A38.26,38.26,0,0,1,77.9,996.1,48.68,48.68,0,0,1,58,1000,47.54,47.54,0,0,1,35.37,994.66Z"/><path class="cls-1" d="M155.16,982.78h-34l-6.31,15.61H91.68L127.15,918h22.38l35.59,80.35H161.47ZM148.5,966l-10.33-25.71L127.84,966Z"/><path class="cls-1" d="M214.28,935.6v17.68h35.47v17.56H214.28v27.55H191.55V918h63V935.6Z"/><path class="cls-1" d="M329.76,980.83v17.56H265.25V918h63V935.6H287.75v13.55h35.7v17h-35.7v14.69ZM301,894h21.81l-21.58,17.45H285.57Z"/><path class="cls-1" d="M429.63,956.49h20.09v33.29a52.36,52.36,0,0,1-15.84,7.58A63.06,63.06,0,0,1,416,1000a47.86,47.86,0,0,1-22.73-5.34A39.88,39.88,0,0,1,377.4,979.8a43.45,43.45,0,0,1,0-43.17,39.62,39.62,0,0,1,16-14.86,49,49,0,0,1,23.07-5.34,51.3,51.3,0,0,1,20.2,3.79,39,39,0,0,1,14.93,10.9l-14.47,13.09q-8.14-9-19.51-9-10.33,0-16.65,6.25t-6.31,16.7a24.21,24.21,0,0,0,2.87,11.89,20.57,20.57,0,0,0,8,8.15,23.61,23.61,0,0,0,11.83,2.92,28.9,28.9,0,0,0,12.28-2.64Z"/><path class="cls-1" d="M518,982.78H484l-6.31,15.61H454.54L490,918H512.4L548,998.39H524.34ZM511.37,966,501,940.31,490.7,966Z"/><path class="cls-1" d="M589.54,977h-12.4v21.35H554.41V918h36.74a45.85,45.85,0,0,1,18.94,3.61A29.22,29.22,0,0,1,622.77,963a27.56,27.56,0,0,1-11.65,10.16l17.34,25.25H604.12Zm10.79-38q-3.55-3.09-10.56-3.1H577.14v23.54h12.63q7,0,10.56-3t3.56-8.67Q603.89,942.15,600.33,939Z"/><path class="cls-1" d="M674.49,977h-12.4v21.35H639.36V918h36.73A45.9,45.9,0,0,1,695,921.65,29.22,29.22,0,0,1,707.72,963a27.62,27.62,0,0,1-11.65,10.16l17.33,25.25H689.07Zm10.79-38q-3.57-3.09-10.56-3.1H662.09v23.54h12.63q7,0,10.56-3t3.56-8.67Q688.84,942.15,685.28,939Z"/><path class="cls-1" d="M724.31,918H747v80.35H724.31Z"/><path class="cls-1" d="M780.33,936.06H755.65V918h72v18H803.06v62.33H780.33Z"/><path class="cls-1" d="M885.94,982.78H852l-6.31,15.61H822.46L857.93,918h22.38l35.59,80.35H892.25ZM879.28,966,869,940.31,858.62,966Z"/><path class="cls-1" d="M931.63,997.59a46.62,46.62,0,0,1-14.93-6.43l7.46-16.76a48.25,48.25,0,0,0,12.52,5.74,47.39,47.39,0,0,0,14,2.18q13.1,0,13.09-6.54c0-2.3-1.25-4-3.73-5.11a68.36,68.36,0,0,0-12-3.5A114.64,114.64,0,0,1,932.89,963a25.41,25.41,0,0,1-10.45-7.18c-2.91-3.28-4.36-7.73-4.36-13.31a23,23,0,0,1,4-13.26,26.94,26.94,0,0,1,12-9.36q8-3.43,19.57-3.44a68.83,68.83,0,0,1,15.61,1.78,48.18,48.18,0,0,1,13.55,5.22l-7,16.88q-11.48-6.21-22.27-6.2-6.76,0-9.87,2a6,6,0,0,0-3.1,5.22c0,2.14,1.22,3.75,3.68,4.82a66.24,66.24,0,0,0,11.82,3.33,111.14,111.14,0,0,1,15.21,4.19,26.3,26.3,0,0,1,10.45,7.12q4.41,4.88,4.41,13.26a22.63,22.63,0,0,1-4,13.08q-4,5.86-12.06,9.36t-19.51,3.5A74.11,74.11,0,0,1,931.63,997.59Z"/></svg>