<svg id="Capa_1" data-name="Capa 1" xmlns="http://www.w3.org/2000/svg" viewBox="0 0 1000 1000"><path d="M217.8,614.41V577.56a20.12,20.12,0,1,0-40.24,0v36.85a248.07,248.07,0,0,0,30.61,119.35,20.13,20.13,0,0,0,35.26-19.42A207.76,207.76,0,0,1,217.8,614.41Z"/><path d="M312.63,788.82a209.83,209.83,0,0,1-31.92-25.54,20.12,20.12,0,1,0-28.09,28.82,250.67,250.67,0,0,0,38.05,30.45,20.12,20.12,0,0,0,22-33.73Z"/><path d="M327.4,285.75c21,16.79,33.93,28.22,33.93,51.09a16.77,16.77,0,1,0,33.54,0c0-40.18-25.82-60.76-46.56-77.31-21-16.77-33.94-28.21-33.94-51.07s12.9-34.3,33.94-51.08c20.74-16.54,46.56-37.12,46.56-77.29a16.77,16.77,0,1,0-33.54,0c0,22.85-12.89,34.3-33.93,51.07-20.75,16.54-46.57,37.13-46.57,77.3S306.65,269.21,327.4,285.75Z"/><path d="M478.21,222.45c21,16.77,33.93,28.21,33.93,51.07a16.77,16.77,0,0,0,33.54,0c0-40.17-25.82-60.75-46.56-77.29-21-16.79-33.93-28.22-33.93-51.09s12.89-34.29,33.93-51.08c20.74-16.54,46.56-37.12,46.56-77.29a16.77,16.77,0,1,0-33.54,0c0,22.86-12.89,34.3-33.93,51.07-20.75,16.55-46.56,37.13-46.56,77.3S457.46,205.9,478.21,222.45Z"/><path d="M814.38,490.35H701.76l.41,124.06c0,151.65-123.38,275-275,275H412.33c-151.64,0-275-123.38-275-275,0,0,1.52-110.66,2.14-124.06H97.06V614.41c0,173.84,141.43,315.27,315.27,315.27h14.81c135.68,0,251.61-86.15,296-206.63h91.27a116.35,116.35,0,0,0,0-232.7Zm0,192.45H734.86a315.22,315.22,0,0,0,7.55-68.39V530.6h72a76.1,76.1,0,0,1,0,152.2Z"/><path d="M785.2,1000H89.43a20.13,20.13,0,0,1,0-40.25H785.2a20.13,20.13,0,1,1,0,40.25Z"/><path d="M138.81,380.13c37.48,23.52,78.15,46.31,114.73,70.06,13.06,8.48,24.85,10,39.22,4.29q128.45-51,257.13.06c14.37,5.72,25.22,7.72,37.87-1.3,36.45-26,79.63-49.64,113.17-73,.55,4.57,1.32,51.63,1.39,83.16,1.51-.42,25.34.36,39.91,0-.08-34.81-.15-49.11.24-83.92.22-20.31-5.56-36.83-24-46.83-18.94-10.27-36.44-5.92-53.34,6.11q-47,33.46-94.8,65.82c-4,2.7-11.25,3.63-15.82,2-89.07-31.34-178.1-31.79-267.08-.24-8.25,2.93-13.86,1.93-20.72-3-31.67-22.58-63.69-44.65-95.6-66.89-15.5-10.81-32-13.16-49-4.28-17.39,9.09-25,24.19-25,43.66,0,36.5,0,51-.1,87.51,16.48,0,24.88,0,41.75,0C138.9,432,138.39,384.38,138.81,380.13Z"/></svg>