<svg id="Capa_1" data-name="Capa 1" xmlns="http://www.w3.org/2000/svg" viewBox="0 0 1920 1080"><defs><style>.cls-1{fill:#e6b771;}.cls-2{fill:#836644;}.cls-3{fill:#ac895f;}.cls-4{fill:#d9ae38;}</style></defs><path class="cls-1" d="M271.34,254c-3.49-4.35-13-9.29-23-9.14s-18.06,4.86-17.77,10.14,10.31,10.07,11.92,15.5-.22,14.21,4.79,19.32,19.28-7,23.75-14.59S276.88,260.86,271.34,254Z"/><path class="cls-1" d="M293.07,282.74c1-3.6-2.44-7.36-7.6-8.43s-10.11,1-11.08,4.55,2.39,7.4,7.55,8.47S292.1,286.34,293.07,282.74Z"/><path class="cls-1" d="M272.16,246.89c3.15,3.63,10,2.9,15.26-1.82s6.93-11.3,3.76-14.84-9.95-2.68-15.15,1.94S269,243.27,272.16,246.89Z"/><path class="cls-1" d="M266.51,234.57c2.37-4.61,1.41-9.78-1.88-11.22s-7.94,1-10.26,5.67-1.55,9.65,1.8,11.19S264.16,239.22,266.51,234.57Z"/><path class="cls-1" d="M293.44,268.1c6.79-1.64,11.58-6.82,10.67-11.55s-7.16-7.22-13.91-5.61-11.58,6.61-10.74,11.29S286.57,269.61,293.44,268.1Z"/><path class="cls-1" d="M963.13,78.48c-1.82-5.28-9.08-13.12-18.62-16.39s-18.64-1.51-20.15,3.56,6.31,12.95,6,18.61-5,13.3-2,19.8,20.5,0,27.28-5.72S966,86.84,963.13,78.48Z"/><path class="cls-1" d="M973.87,112.9c2.13-3.06.19-7.76-4.31-10.5s-9.84-2.51-12,.55-.24,7.77,4.26,10.51S971.74,116,973.87,112.9Z"/><path class="cls-1" d="M966.28,72.1c1.74,4.47,8.48,6.12,15,3.44s10.33-8.3,8.54-12.71-8.45-5.88-14.91-3.28S964.54,67.63,966.28,72.1Z"/><path class="cls-1" d="M965.12,58.59c3.79-3.54,4.63-8.73,2-11.19s-7.81-1.73-11.57,1.87-4.71,8.57-2.08,11.15S961.34,62.17,965.12,58.59Z"/><path class="cls-1" d="M979.16,99.25c6.94.74,13.2-2.52,13.94-7.27s-4.3-9.22-11.2-10S968.77,84.31,968,89,972.18,98.35,979.16,99.25Z"/><path class="cls-1" d="M1825.13,928.48c-1.82-5.28-9.08-13.12-18.62-16.39s-18.64-1.51-20.15,3.56,6.31,13,6,18.61-5,13.3-2,19.8,20.5,0,27.28-5.72S1828,936.84,1825.13,928.48Z"/><path class="cls-1" d="M1835.87,962.9c2.13-3.06.19-7.76-4.31-10.5s-9.84-2.51-12,.55-.24,7.77,4.26,10.51S1833.74,966,1835.87,962.9Z"/><path class="cls-1" d="M1828.28,922.1c1.74,4.47,8.48,6.12,15,3.44s10.33-8.3,8.54-12.71-8.45-5.88-14.91-3.28S1826.54,917.63,1828.28,922.1Z"/><path class="cls-1" d="M1827.12,908.59c3.79-3.54,4.63-8.73,2-11.19s-7.81-1.73-11.57,1.87-4.71,8.57-2.08,11.15S1823.34,912.17,1827.12,908.59Z"/><path class="cls-1" d="M1841.16,949.25c6.94.74,13.2-2.52,13.94-7.27s-4.3-9.22-11.2-10-13.13,2.31-13.93,7S1834.18,948.35,1841.16,949.25Z"/><path class="cls-1" d="M551.34,132c-3.49-4.35-13-9.29-23.05-9.14s-18.06,4.86-17.77,10.14,10.31,10.07,11.92,15.5-.22,14.21,4.79,19.32,19.28-7,23.75-14.59S556.88,138.86,551.34,132Z"/><path class="cls-1" d="M573.07,160.74c1-3.6-2.44-7.36-7.6-8.43s-10.11,1-11.08,4.55,2.39,7.4,7.55,8.47S572.1,164.34,573.07,160.74Z"/><path class="cls-1" d="M552.16,124.89c3.15,3.63,10.05,2.9,15.26-1.82s6.93-11.3,3.76-14.84-9.95-2.68-15.15,1.94S549,121.27,552.16,124.89Z"/><path class="cls-1" d="M546.51,112.57c2.37-4.61,1.41-9.78-1.88-11.22s-7.94,1-10.26,5.67-1.55,9.65,1.8,11.19S544.16,117.22,546.51,112.57Z"/><path class="cls-1" d="M573.44,146.1c6.79-1.64,11.58-6.82,10.67-11.55s-7.16-7.22-13.91-5.61-11.58,6.61-10.74,11.29S566.57,147.61,573.44,146.1Z"/><path class="cls-2" d="M174.32,211.07c-4-3.87-14.06-7.54-24-6.09S133,212.13,134,217.33s11.52,8.65,13.81,13.83,1.62,14.12,7.24,18.54,18.22-9.38,21.67-17.53S180.7,217.19,174.32,211.07Z"/><path class="cls-2" d="M199.58,236.81c.5-3.7-3.38-7-8.63-7.39s-9.9,2.26-10.4,6,3.33,7,8.58,7.42S199.08,240.5,199.58,236.81Z"/><path class="cls-2" d="M174.21,204c3.6,3.19,10.34,1.59,14.9-3.76s5.41-12.1,1.81-15.21-10.2-1.38-14.76,3.88S170.63,200.77,174.21,204Z"/><path class="cls-2" d="M167,192.47c1.76-4.88.14-9.89-3.31-10.88s-7.74,2-9.44,6.94-.29,9.77,3.23,10.86S165.29,197.38,167,192.47Z"/><path class="cls-2" d="M198.06,222.24c6.52-2.5,10.6-8.25,9.08-12.82s-8-6.25-14.51-3.78-10.63,8.05-9.2,12.59S191.44,224.62,198.06,222.24Z"/><path class="cls-2" d="M671.62,179.9c-2.84-4.81-11.5-11.06-21.49-12.38s-18.58,2.21-19,7.48,8.75,11.45,9.55,17.05-2.26,14,2,19.81,20.08-4.1,25.61-11S676.1,187.52,671.62,179.9Z"/><path class="cls-2" d="M689,211.51c1.48-3.41-1.35-7.64-6.31-9.44S672.51,201.56,671,205s1.31,7.66,6.26,9.47S687.48,214.93,689,211.51Z"/><path class="cls-2" d="M673.44,173c2.6,4,9.53,4.33,15.36.41s8.49-10.18,5.87-14.15-9.46-4.09-15.27-.26S670.85,169,673.44,173Z"/><path class="cls-2" d="M669.63,160c3-4.22,2.81-9.47-.24-11.37s-8-.15-11,4.13-2.92,9.33.17,11.33S666.63,164.27,669.63,160Z"/><path class="cls-2" d="M691.44,197.08c7-.64,12.45-5.07,12.22-9.88s-6-8.19-12.95-7.57-12.41,4.87-12.26,9.63S684.42,197.58,691.44,197.08Z"/><path class="cls-2" d="M1069.18,156.06c-.3-5.58-5.11-15.11-13.39-20.88s-17.5-6.58-20.35-2.12,2.5,14.19.64,19.54-8.47,11.41-7.38,18.48,19.71,5.6,27.8,2S1069.65,164.89,1069.18,156.06Z"/><path class="cls-2" d="M1070,192.11c2.89-2.35,2.31-7.41-1.26-11.29s-8.77-5.11-11.66-2.76-2.36,7.4,1.2,11.28S1067.15,194.46,1070,192.11Z"/><path class="cls-2" d="M1074,150.79c.44,4.79,6.46,8.23,13.45,7.43s12.22-5.13,11.71-9.86-6.51-8-13.43-7.26S1073.52,146,1074,150.79Z"/><path class="cls-2" d="M1076.56,137.49c4.62-2.36,6.86-7.12,5-10.21s-7-3.81-11.63-1.38-6.89,6.94-5.07,10.14S1072,139.89,1076.56,137.49Z"/><path class="cls-2" d="M1078.88,180.44c6.47,2.63,13.38,1.22,15.4-3.15s-1.6-10-8-12.68-13.26-1.39-15.32,2.9S1072.42,177.65,1078.88,180.44Z"/><path class="cls-3" d="M71.61,272.74c-2.47-5-10.64-11.88-20.52-13.93s-18.68.82-19.55,6,7.88,12.07,8.27,17.71-3.31,13.83.47,19.9,20.33-2.59,26.35-9.07S75.51,280.68,71.61,272.74Z"/><path class="cls-3" d="M86.56,305.56c1.73-3.3-.79-7.72-5.59-9.89s-10.08-1.26-11.81,2,.73,7.74,5.54,9.91S84.82,308.86,86.56,305.56Z"/><path class="cls-3" d="M73.94,266c2.28,4.23,9.17,5,15.29,1.55s9.22-9.53,6.89-13.68-9.12-4.77-15.2-1.39S71.66,261.81,73.94,266Z"/><path class="cls-3" d="M71.1,252.77c3.32-4,3.51-9.24.6-11.36s-8-.75-11.24,3.3-3.61,9.09-.68,11.32S67.8,256.79,71.1,252.77Z"/><path class="cls-3" d="M90.1,291.35c7-.12,12.79-4.13,12.92-9s-5.41-8.61-12.35-8.5-12.74,3.93-13,8.69S83.06,291.33,90.1,291.35Z"/><path class="cls-3" d="M471.61,211.74c-2.47-5-10.64-11.88-20.52-13.93s-18.68.82-19.55,6,7.88,12.07,8.27,17.71-3.31,13.83.47,19.9,20.33-2.59,26.35-9.07S475.51,219.68,471.61,211.74Z"/><path class="cls-3" d="M486.56,244.56c1.73-3.3-.79-7.72-5.59-9.89s-10.08-1.26-11.81,2,.73,7.74,5.54,9.91S484.82,247.86,486.56,244.56Z"/><path class="cls-3" d="M473.94,205c2.28,4.23,9.17,5,15.29,1.55s9.22-9.53,6.89-13.68-9.12-4.77-15.2-1.39S471.66,200.81,473.94,205Z"/><path class="cls-3" d="M471.1,191.77c3.32-4,3.51-9.24.6-11.36s-8-.75-11.24,3.3-3.61,9.09-.68,11.32S467.8,195.79,471.1,191.77Z"/><path class="cls-3" d="M490.1,230.35c7-.12,12.79-4.13,12.92-8.95s-5.41-8.61-12.35-8.5-12.74,3.93-12.95,8.69S483.06,230.33,490.1,230.35Z"/><path class="cls-3" d="M748.61,98.74c-2.47-5-10.64-11.88-20.52-13.93s-18.68.82-19.55,6,7.88,12.07,8.27,17.71-3.31,13.83.47,19.9,20.33-2.59,26.35-9.07S752.51,106.68,748.61,98.74Z"/><path class="cls-3" d="M763.56,131.56c1.73-3.3-.79-7.72-5.59-9.89s-10.08-1.26-11.81,2,.73,7.74,5.54,9.91S761.82,134.86,763.56,131.56Z"/><path class="cls-3" d="M750.94,92c2.28,4.23,9.17,5,15.29,1.55s9.22-9.53,6.89-13.68-9.12-4.77-15.2-1.39S748.66,87.81,750.94,92Z"/><path class="cls-3" d="M748.1,78.77c3.32-4,3.51-9.24.6-11.36s-8-.75-11.24,3.3-3.61,9.09-.68,11.32S744.8,82.79,748.1,78.77Z"/><path class="cls-3" d="M767.1,117.35c7-.12,12.79-4.13,12.92-8.95s-5.41-8.61-12.35-8.5-12.74,3.93-12.95,8.69S760.06,117.33,767.1,117.35Z"/><path class="cls-4" d="M358.55,163.21c-4.21-3.67-14.41-6.86-24.31-4.93s-16.92,8-15.7,13.12,11.93,8.09,14.47,13.15,2.29,14,8.12,18.17,17.75-10.25,20.8-18.55S365.22,169,358.55,163.21Z"/><path class="cls-4" d="M385,187.7c.33-3.71-3.7-6.82-9-7s-9.78,2.73-10.1,6.44,3.66,6.86,8.93,7S384.69,191.41,385,187.7Z"/><path class="cls-4" d="M358.1,156.1c3.74,3,10.41,1.09,14.7-4.47s4.83-12.35,1.08-15.28-10.26-.88-14.56,4.59S354.37,153.1,358.1,156.1Z"/><path class="cls-4" d="M350.36,145c1.53-5-.33-9.88-3.83-10.71s-7.63,2.39-9.09,7.38.18,9.78,3.74,10.7S348.87,150,350.36,145Z"/><path class="cls-4" d="M382.8,173.23c6.39-2.81,10.19-8.76,8.46-13.25s-8.32-5.85-14.68-3.07-10.23,8.55-8.59,13S376.3,175.92,382.8,173.23Z"/><path class="cls-1" d="M1191.22,93.07c.72-5.53-2.28-15.78-9.37-23s-16-9.65-19.62-5.79-.13,14.41-2.93,19.33-10.4,9.69-10.62,16.84,18.37,9.09,27,7S1190.08,101.84,1191.22,93.07Z"/><path class="cls-1" d="M1185.51,128.68c3.27-1.79,3.62-6.86.82-11.33s-7.69-6.62-11-4.83-3.67,6.85-.87,11.31S1182.25,130.47,1185.51,128.68Z"/><path class="cls-1" d="M1196.89,88.76c-.44,4.79,4.86,9.26,11.87,9.75s13-2.83,13.32-7.57-5-9-11.89-9.57S1197.32,84,1196.89,88.76Z"/><path class="cls-1" d="M1201.86,76.16c5-1.49,8-5.76,6.79-9.13s-6.22-5-11.19-3.48-8,5.58-6.83,9.06S1196.88,77.68,1201.86,76.16Z"/><path class="cls-1" d="M1196.33,118.81c5.88,3.76,12.94,3.63,15.72-.31s.25-10.16-5.59-13.92-12.78-3.77-15.59.08S1190.48,114.89,1196.33,118.81Z"/><path class="cls-1" d="M1465.16,227.54c.72-5.54-2.29-15.79-9.38-23s-16-9.66-19.62-5.79-.12,14.41-2.92,19.33-10.41,9.68-10.62,16.83,18.37,9.09,27,7S1464,236.31,1465.16,227.54Z"/><path class="cls-1" d="M1459.45,263.14c3.27-1.79,3.62-6.86.81-11.32s-7.69-6.63-11-4.84-3.67,6.85-.87,11.31S1456.18,264.93,1459.45,263.14Z"/><path class="cls-1" d="M1470.82,223.23c-.43,4.78,4.86,9.26,11.88,9.75s13-2.83,13.31-7.57-5-9-11.89-9.58S1471.25,218.45,1470.82,223.23Z"/><path class="cls-1" d="M1475.79,210.62c5-1.48,8-5.75,6.79-9.13s-6.22-5-11.19-3.47-8,5.57-6.83,9S1470.81,212.14,1475.79,210.62Z"/><path class="cls-1" d="M1470.26,253.27c5.89,3.76,12.94,3.63,15.72-.3s.26-10.17-5.58-13.92-12.79-3.78-15.59.07S1464.41,249.36,1470.26,253.27Z"/><path class="cls-3" d="M1259.38,194.28c1.9-5.25,1.2-15.9-4.16-24.45s-13.53-12.91-17.89-9.92-3.25,14-7.06,18.24-12.26,7.19-14,14.12,16,12.86,24.79,12.72S1256.36,202.6,1259.38,194.28Z"/><path class="cls-3" d="M1246.06,227.79c3.58-1,5-5.91,3.26-10.87s-6.07-8.14-9.64-7.11-5.08,5.89-3.32,10.86S1242.48,228.83,1246.06,227.79Z"/><path class="cls-3" d="M1265.84,191.31c-1.46,4.57,2.74,10.09,9.48,12.1s13.25.05,14.64-4.5-2.88-9.89-9.53-11.93S1267.3,186.74,1265.84,191.31Z"/><path class="cls-3" d="M1273.44,180.08c5.17-.36,9.09-3.87,8.61-7.43s-5-6.26-10.17-5.83-9.05,3.7-8.63,7.36S1268.25,180.48,1273.44,180.08Z"/><path class="cls-3" d="M1258.77,220.51c4.92,5,11.84,6.36,15.4,3.12s2.46-9.87-2.42-14.8-11.66-6.46-15.23-3.32S1253.91,215.42,1258.77,220.51Z"/><path class="cls-4" d="M1374.08,124.12c-.27-5.58-5-15.14-13.28-21s-17.47-6.68-20.33-2.24,2.42,14.21.53,19.55-8.53,11.37-7.48,18.44,19.68,5.7,27.79,2.16S1374.51,133,1374.08,124.12Z"/><path class="cls-4" d="M1374.75,160.17c2.9-2.34,2.35-7.39-1.2-11.29s-8.74-5.16-11.64-2.83-2.41,7.39,1.14,11.29S1371.84,162.51,1374.75,160.17Z"/><path class="cls-4" d="M1378.9,118.87c.41,4.79,6.42,8.26,13.41,7.5s12.24-5.07,11.76-9.8-6.47-8-13.39-7.32S1378.48,114.1,1378.9,118.87Z"/><path class="cls-4" d="M1381.56,105.59c4.64-2.34,6.9-7.08,5.07-10.18s-7-3.86-11.62-1.45-6.93,6.9-5.12,10.11S1376.93,108,1381.56,105.59Z"/><path class="cls-4" d="M1383.65,148.55c6.45,2.66,13.37,1.29,15.41-3.08s-1.54-10.05-8-12.71-13.25-1.46-15.33,2.82S1377.2,145.73,1383.65,148.55Z"/><path class="cls-4" d="M1706.08,1007.12c-.27-5.58-5-15.14-13.28-21s-17.47-6.68-20.33-2.24,2.42,14.21.53,19.55-8.53,11.37-7.48,18.44,19.68,5.7,27.79,2.16S1706.51,1016,1706.08,1007.12Z"/><path class="cls-4" d="M1706.75,1043.17c2.9-2.34,2.35-7.39-1.2-11.29s-8.74-5.16-11.64-2.83-2.41,7.39,1.14,11.29S1703.84,1045.51,1706.75,1043.17Z"/><path class="cls-4" d="M1710.9,1001.87c.41,4.79,6.42,8.26,13.41,7.5s12.24-5.07,11.76-9.8-6.47-8-13.39-7.32S1710.48,997.1,1710.9,1001.87Z"/><path class="cls-4" d="M1713.56,988.59c4.64-2.34,6.9-7.08,5.07-10.18s-7-3.86-11.62-1.45-6.93,6.9-5.12,10.11S1708.93,991,1713.56,988.59Z"/><path class="cls-4" d="M1715.65,1031.55c6.45,2.66,13.37,1.29,15.41-3.08s-1.54-10.05-8-12.71-13.25-1.46-15.33,2.82S1709.2,1028.73,1715.65,1031.55Z"/><path class="cls-2" d="M1588.16,197.8c4.1-3.79,8.37-13.58,7.54-23.63s-6.1-17.68-11.34-17-9.34,11-14.64,13-14.2.75-19,6.1S1559,195,1567,198.89,1581.66,203.8,1588.16,197.8Z"/><path class="cls-2" d="M1560.94,221.45c3.65.73,7.17-2.94,7.89-8.16s-1.66-10-5.31-10.75-7.21,2.9-7.93,8.12S1557.28,220.73,1560.94,221.45Z"/><path class="cls-2" d="M1595.27,198.13c-3.41,3.39-2.21,10.22,2.85,15.1s11.75,6.13,15.07,2.73,2-10.11-3-15S1598.66,194.74,1595.27,198.13Z"/><path class="cls-2" d="M1607.17,191.64c4.76,2.06,9.85.75,11.06-2.64s-1.55-7.85-6.35-9.85-9.74-.88-11.05,2.57S1602.37,189.62,1607.17,191.64Z"/><path class="cls-2" d="M1575.56,220.82c2.1,6.66,7.6,11.08,12.25,9.85s6.73-7.64,4.65-14.26-7.39-11.1-12-9.95S1573.59,214.06,1575.56,220.82Z"/><path class="cls-1" d="M1455,990c0-5.58-4.42-15.32-12.43-21.46s-17.19-7.37-20.23-3,1.85,14.29-.24,19.55-9,11-8.22,18.13,19.44,6.48,27.68,3.26S1455.1,998.82,1455,990Z"/><path class="cls-1" d="M1454.25,1026c3-2.22,2.64-7.29-.74-11.33s-8.53-5.5-11.52-3.28-2.7,7.28.68,11.32S1451.26,1028.24,1454.25,1026Z"/><path class="cls-1" d="M1460,984.93c.23,4.8,6.09,8.5,13.11,8s12.43-4.57,12.14-9.32-6.14-8.26-13.09-7.86S1459.82,980.14,1460,984.93Z"/><path class="cls-1" d="M1463.24,971.76c4.72-2.15,7.17-6.8,5.47-10s-6.85-4.13-11.56-1.91-7.19,6.62-5.52,9.9S1458.52,974,1463.24,971.76Z"/><path class="cls-1" d="M1463.61,1014.77c6.34,2.91,13.31,1.82,15.53-2.46s-1.14-10.11-7.44-13-13.18-2-15.43,2.2S1457.28,1011.69,1463.61,1014.77Z"/><path class="cls-2" d="M1572.43,939c-1-5.51-6.87-14.4-15.76-19.15s-18.17-4.47-20.46.29,4.16,13.8,2.94,19.33-7.06,12.34-5.14,19.23,20.23,3.23,27.84-1.3S1573.94,947.68,1572.43,939Z"/><path class="cls-2" d="M1577.54,974.66c2.59-2.68,1.42-7.63-2.58-11.06s-9.31-4-11.9-1.36-1.48,7.63,2.52,11.06S1575,977.34,1577.54,974.66Z"/><path class="cls-2" d="M1576.56,933.17c1,4.7,7.39,7.4,14.23,5.78s11.53-6.54,10.47-11.18-7.41-7.15-14.2-5.61S1575.55,928.48,1576.56,933.17Z"/><path class="cls-2" d="M1577.56,919.65c4.31-2.89,6-7.88,3.78-10.73s-7.43-2.95-11.72,0-6,7.71-3.83,10.68S1573.26,922.58,1577.56,919.65Z"/><path class="cls-2" d="M1584.94,962c6.74,1.84,13.44-.38,14.92-5s-2.77-9.79-9.46-11.63-13.33.19-14.87,4.69S1578.2,960,1584.94,962Z"/><path class="cls-1" d="M1714.51,251.63c4.72-3,10.7-11.83,11.7-21.87s-2.77-18.49-8-18.81-11.18,9.1-16.75,10.08-14.1-1.83-19.74,2.56,4.71,19.94,11.79,25.25S1707,256.34,1714.51,251.63Z"/><path class="cls-1" d="M1683.44,269.94c3.46,1.37,7.6-1.59,9.25-6.6s.19-10.15-3.27-11.52-7.62,1.54-9.27,6.54S1680,268.56,1683.44,269.94Z"/><path class="cls-1" d="M1721.44,253.24c-4,2.72-4,9.65.06,15.37s10.44,8.16,14.33,5.42,3.79-9.57-.21-15.27S1725.39,250.53,1721.44,253.24Z"/><path class="cls-1" d="M1734.32,249c4.31,2.88,9.56,2.52,11.36-.59s-.1-8-4.46-10.84-9.42-2.63-11.33.51S1730,246.16,1734.32,249Z"/><path class="cls-1" d="M1697.94,272c.86,6.93,5.46,12.28,10.26,11.91s8-6.28,7.16-13.18-5.25-12.25-10-12S1697.23,265,1697.94,272Z"/><path class="cls-3" d="M1654,353.67c5.26-1.88,13-9.22,16.18-18.79s1.31-18.66-3.77-20.11-12.89,6.45-18.54,6.19-13.36-4.86-19.83-1.8.27,20.5,6,27.22S1645.69,356.65,1654,353.67Z"/><path class="cls-3" d="M1619.72,364.79c3.08,2.09,7.76.1,10.46-4.43s2.39-9.86-.69-12-7.77-.15-10.47,4.37S1616.64,362.69,1619.72,364.79Z"/><path class="cls-3" d="M1660.44,356.75c-4.46,1.79-6,8.55-3.28,15s8.41,10.24,12.8,8.4,5.79-8.52,3.12-14.94S1664.88,355,1660.44,356.75Z"/><path class="cls-3" d="M1673.93,355.44c3.58,3.75,8.78,4.54,11.21,1.89s1.65-7.82-2-11.54-8.62-4.62-11.17-2S1670.31,351.7,1673.93,355.44Z"/><path class="cls-3" d="M1633.43,369.93c-.67,6.95,2.66,13.17,7.42,13.85s9.17-4.4,9.86-11.3-2.46-13.11-7.16-13.85S1634.25,362.94,1633.43,369.93Z"/><path class="cls-4" d="M1720.43,463.27c5.55.64,15.75-2.52,22.82-9.72s9.41-16.17,5.48-19.71-14.41.1-19.37-2.63-9.85-10.25-17-10.36-8.8,18.51-6.6,27.08S1711.65,462.27,1720.43,463.27Z"/><path class="cls-4" d="M1684.74,458.12c1.84,3.24,6.92,3.51,11.34.64s6.51-7.8,4.67-11-6.91-3.56-11.33-.7S1682.9,454.87,1684.74,458.12Z"/><path class="cls-4" d="M1724.83,468.87c-4.79-.36-9.18,5-9.56,12s3,12.9,7.77,13.19,9-5.09,9.39-12S1729.61,469.23,1724.83,468.87Z"/><path class="cls-4" d="M1737.51,473.64c1.56,4.95,5.88,7.95,9.23,6.65s4.94-6.29,3.31-11.24-5.7-7.95-9.16-6.69S1735.92,468.69,1737.51,473.64Z"/><path class="cls-4" d="M1694.78,468.78c-3.67,5.94-3.43,13,.55,15.71s10.17.1,13.83-5.8,3.57-12.84-.31-15.59S1698.6,462.87,1694.78,468.78Z"/><path class="cls-4" d="M857.29,155.14c-3.15-4.6-12.22-10.24-22.29-10.86s-18.38,3.48-18.49,8.77,9.52,10.82,10.71,16.35-1.29,14.16,3.31,19.63,19.75-5.47,24.79-12.75S862.29,162.44,857.29,155.14Z"/><path class="cls-4" d="M876.78,185.49c1.24-3.52-1.88-7.53-6.94-9s-10.16.19-11.4,3.7,1.83,7.56,6.89,9S875.54,189,876.78,185.49Z"/><path class="cls-4" d="M858.64,148.15c2.87,3.86,9.8,3.66,15.36-.65s7.76-10.74,4.87-14.52-9.71-3.42-15.25.79S855.78,144.31,858.64,148.15Z"/><path class="cls-4" d="M853.94,135.44c2.72-4.42,2.16-9.64-1-11.33s-8,.4-10.66,4.87-2.27,9.51,1,11.3S851.24,139.9,853.94,135.44Z"/><path class="cls-4" d="M878.26,170.92c6.89-1.12,12.06-5.92,11.51-10.71s-6.59-7.75-13.44-6.65-12.05,5.71-11.57,10.45S871.29,171.9,878.26,170.92Z"/><path class="cls-1" d="M245.31,991.9c-3.32-4.49-12.58-9.8-22.66-10.06s-18.25,4.13-18.17,9.42,9.9,10.47,11.29,16-.79,14.19,4,19.5,19.54-6.18,24.31-13.63S250.57,999,245.31,991.9Z"/><path class="cls-1" d="M265.87,1021.53c1.11-3.56-2.15-7.46-7.26-8.74s-10.14.56-11.26,4.11,2.1,7.49,7.21,8.76S264.75,1025.08,265.87,1021.53Z"/><path class="cls-1" d="M246.41,984.86c3,3.76,9.92,3.31,15.32-1.19s7.38-11,4.35-14.69-9.83-3.07-15.21,1.34S243.41,981.12,246.41,984.86Z"/><path class="cls-1" d="M241.26,972.33c2.56-4.51,1.81-9.72-1.43-11.28s-8,.68-10.48,5.24-1.93,9.59,1.35,11.26S238.72,976.88,241.26,972.33Z"/><path class="cls-1" d="M266.83,1006.92c6.84-1.37,11.84-6.35,11.12-11.11s-6.86-7.51-13.67-6.17-11.84,6.14-11.19,10.85S259.9,1008.15,266.83,1006.92Z"/><path class="cls-1" d="M943.59,844.35c-1.61-5.35-8.54-13.47-18-17.12S907.08,825,905.37,830s5.78,13.2,5.24,18.84-5.53,13.09-2.81,19.7,20.48.78,27.49-4.62S946.13,852.82,943.59,844.35Z"/><path class="cls-1" d="M952.94,879.18c2.25-3,.5-7.75-3.89-10.67s-9.73-2.9-12,.07-.55,7.75,3.83,10.68S950.69,882.15,952.94,879.18Z"/><path class="cls-1" d="M947,838.1c1.56,4.55,8.23,6.46,14.83,4s10.66-7.88,9-12.35-8.21-6.22-14.77-3.88S945.43,833.57,947,838.1Z"/><path class="cls-1" d="M946.37,824.56c3.93-3.38,5-8.53,2.46-11.1s-7.73-2.05-11.63,1.4-5.05,8.37-2.53,11S942.45,828,946.37,824.56Z"/><path class="cls-1" d="M958.77,865.75c6.91,1,13.29-2,14.22-6.71s-3.93-9.38-10.79-10.42S949,850.41,948,855.06,951.84,864.57,958.77,865.75Z"/><path class="cls-1" d="M530,881.24c-3.32-4.49-12.59-9.8-22.67-10.06s-18.24,4.14-18.16,9.43,9.9,10.47,11.28,16-.78,14.19,4,19.5,19.54-6.18,24.32-13.63S535.24,888.36,530,881.24Z"/><path class="cls-1" d="M550.54,910.87c1.12-3.55-2.14-7.45-7.26-8.73s-10.14.56-11.25,4.11,2.1,7.48,7.21,8.76S549.42,914.43,550.54,910.87Z"/><path class="cls-1" d="M531.08,874.21c3,3.75,9.93,3.31,15.32-1.2s7.38-11,4.36-14.68-9.83-3.08-15.21,1.33S528.09,870.47,531.08,874.21Z"/><path class="cls-1" d="M525.93,861.68c2.56-4.51,1.81-9.72-1.43-11.29s-8,.69-10.47,5.25-1.93,9.59,1.35,11.26S523.4,866.22,525.93,861.68Z"/><path class="cls-1" d="M551.5,896.26c6.85-1.36,11.84-6.34,11.12-11.11S555.76,877.64,549,879s-11.83,6.13-11.19,10.85S544.57,897.49,551.5,896.26Z"/><path class="cls-2" d="M136.35,902.08c4.3-3.57,9.07-13.12,8.75-23.2s-5.17-18-10.44-17.6-9.89,10.48-15.29,12.18-14.22,0-19.24,5.11,7.28,19.16,15,23.5S129.55,907.73,136.35,902.08Z"/><path class="cls-2" d="M107.94,924.29c3.62.91,7.33-2.57,8.31-7.74s-1.13-10.09-4.75-11-7.35,2.53-8.33,7.7S104.33,923.38,107.94,924.29Z"/><path class="cls-2" d="M143.44,902.77c-3.58,3.22-2.74,10.1,2.07,15.23s11.41,6.74,14.9,3.51,2.52-10-2.2-15.11S147,899.57,143.44,902.77Z"/><path class="cls-2" d="M155.66,896.91c4.65,2.3,9.8,1.26,11.18-2.07s-1.14-7.91-5.84-10.16-9.68-1.38-11.16,2S151,894.64,155.66,896.91Z"/><path class="cls-2" d="M122.58,924.42c1.76,6.75,7,11.46,11.73,10.46s7.11-7.27,5.38-14-6.8-11.46-11.47-10.55S121,917.57,122.58,924.42Z"/><path class="cls-2" d="M648.24,934c-2.64-4.93-11-11.52-21-13.23s-18.65,1.46-19.33,6.7,8.28,11.79,8.86,17.42-2.83,13.94,1.15,19.88,20.23-3.29,26-10S652.41,941.78,648.24,934Z"/><path class="cls-2" d="M664.3,966.26c1.62-3.35-1-7.68-5.92-9.69s-10.12-.91-11.73,2.44,1,7.71,5.87,9.72S662.68,969.62,664.3,966.26Z"/><path class="cls-2" d="M650.34,927.18c2.43,4.14,9.34,4.7,15.33,1s8.89-9.83,6.43-13.9-9.28-4.46-15.25-.87S647.91,923,650.34,927.18Z"/><path class="cls-2" d="M647.05,914c3.18-4.1,3.19-9.35.21-11.37s-8-.48-11.12,3.68-3.29,9.2-.29,11.33S643.88,918.16,647.05,914Z"/><path class="cls-2" d="M667.36,952c7-.37,12.63-4.58,12.6-9.39s-5.7-8.42-12.63-8.08-12.6,4.37-12.64,9.12S660.32,952.16,667.36,952Z"/><path class="cls-2" d="M1046.44,926.13c-.08-5.58-4.5-15.3-12.54-21.4s-17.23-7.28-20.25-2.94,1.93,14.28-.15,19.55-8.92,11.07-8.12,18.17,19.48,6.39,27.7,3.12S1046.56,935,1046.44,926.13Z"/><path class="cls-2" d="M1045.84,962.19c3-2.24,2.61-7.31-.8-11.33s-8.55-5.47-11.53-3.23-2.67,7.3.74,11.32S1042.86,964.42,1045.84,962.19Z"/><path class="cls-2" d="M1051.43,921.06c.25,4.8,6.13,8.48,13.14,8s12.42-4.64,12.11-9.38-6.19-8.23-13.14-7.79S1051.18,916.27,1051.43,921.06Z"/><path class="cls-2" d="M1054.56,907.87c4.71-2.17,7.14-6.83,5.42-10s-6.87-4.1-11.57-1.86-7.16,6.66-5.47,9.93S1049.85,910.09,1054.56,907.87Z"/><path class="cls-2" d="M1055.15,950.88c6.36,2.89,13.32,1.75,15.51-2.53s-1.19-10.11-7.5-13-13.2-1.92-15.42,2.29S1048.8,947.84,1055.15,950.88Z"/><path class="cls-3" d="M447.11,957.76c-2.26-5.1-10.15-12.3-19.94-14.75s-18.7.07-19.78,5.25,7.39,12.38,7.55,18-3.86,13.69-.33,19.91,20.42-1.78,26.7-8S450.69,965.85,447.11,957.76Z"/><path class="cls-3" d="M460.73,991.15c1.86-3.22-.48-7.74-5.19-10.1s-10-1.66-11.88,1.56.42,7.76,5.13,10.12S458.86,994.38,460.73,991.15Z"/><path class="cls-3" d="M449.71,951.14c2.11,4.31,9,5.38,15.21,2.16s9.6-9.15,7.44-13.39-8.92-5.14-15.13-2S447.6,946.83,449.71,951.14Z"/><path class="cls-3" d="M447.4,937.78c3.48-3.85,3.88-9.09,1.06-11.32s-7.92-1.07-11.36,2.84-4,8.94-1.13,11.28S443.94,941.67,447.4,937.78Z"/><path class="cls-3" d="M464.84,977.1c7,.16,12.94-3.62,13.27-8.43s-5.06-8.82-12-9-12.89,3.42-13.28,8.16S457.81,976.79,464.84,977.1Z"/><path class="cls-3" d="M728.42,856c-2.26-5.1-10.15-12.3-19.93-14.75s-18.71.07-19.78,5.25,7.38,12.38,7.55,18-3.86,13.69-.33,19.91,20.41-1.78,26.69-8S732,864.07,728.42,856Z"/><path class="cls-3" d="M742,889.37c1.87-3.23-.47-7.74-5.18-10.1s-10-1.66-11.88,1.56.42,7.76,5.13,10.12S740.18,892.6,742,889.37Z"/><path class="cls-3" d="M731,849.36c2.12,4.31,9,5.38,15.22,2.16s9.59-9.15,7.44-13.39-8.92-5.14-15.14-2S728.91,845.05,731,849.36Z"/><path class="cls-3" d="M728.72,836c3.48-3.85,3.88-9.09,1.06-11.32s-7.93-1.07-11.37,2.84-4,8.94-1.13,11.28S725.26,839.89,728.72,836Z"/><path class="cls-3" d="M746.16,875.32c7,.16,12.94-3.62,13.27-8.43s-5.07-8.82-12-9-12.89,3.42-13.29,8.16S739.13,875,746.16,875.32Z"/><path class="cls-4" d="M336.09,904.72C332,900.89,322,897.3,312,898.82s-17.22,7.29-16.21,12.48,11.59,8.56,13.93,13.72,1.72,14.11,7.38,18.48,18.15-9.52,21.53-17.7S342.52,910.8,336.09,904.72Z"/><path class="cls-4" d="M361.55,930.26c.47-3.7-3.43-7-8.69-7.31s-9.88,2.33-10.35,6,3.39,7,8.65,7.36S361.08,934,361.55,930.26Z"/><path class="cls-4" d="M335.93,897.61c3.62,3.16,10.35,1.5,14.87-3.89s5.31-12.14,1.69-15.22-10.22-1.29-14.73,4S332.32,894.45,335.93,897.61Z"/><path class="cls-4" d="M328.65,886.18c1.72-4.9.06-9.89-3.4-10.86s-7.72,2.08-9.39,7-.21,9.77,3.32,10.84S327,891.1,328.65,886.18Z"/><path class="cls-4" d="M359.92,915.71c6.5-2.55,10.53-8.34,9-12.9s-8.08-6.18-14.54-3.66-10.57,8.13-9.1,12.66S353.31,918.14,359.92,915.71Z"/><path class="cls-1" d="M1170.91,868.1c.94-5.51-1.64-15.87-8.44-23.32s-15.62-10.29-19.38-6.58-.7,14.4-3.69,19.2-10.79,9.26-11.29,16.4,18,9.82,26.67,8.1S1169.42,876.82,1170.91,868.1Z"/><path class="cls-1" d="M1163.78,903.44c3.33-1.65,3.89-6.71,1.27-11.28s-7.42-6.93-10.76-5.27-4,6.7-1.33,11.27S1160.44,905.1,1163.78,903.44Z"/><path class="cls-1" d="M1176.74,864c-.62,4.76,4.49,9.45,11.48,10.22s13-2.31,13.61-7-4.59-9.22-11.5-10.05S1177.37,859.27,1176.74,864Z"/><path class="cls-1" d="M1182.22,851.62c5-1.28,8.26-5.42,7.15-8.85s-6-5.27-11-3.92-8.25,5.25-7.19,8.77S1177.18,852.94,1182.22,851.62Z"/><path class="cls-1" d="M1175,894c5.73,4,12.78,4.14,15.72.32s.66-10.15-5-14.13-12.63-4.28-15.58-.55S1169.29,889.87,1175,894Z"/><path class="cls-3" d="M1235,972c2.11-5.17,1.84-15.84-3.17-24.59s-13-13.45-17.49-10.63-3.81,13.89-7.78,17.93-12.54,6.7-14.58,13.55,15.42,13.49,24.27,13.7S1231.6,980.15,1235,972Z"/><path class="cls-3" d="M1220.3,1004.91c3.61-.89,5.25-5.7,3.69-10.73s-5.74-8.38-9.35-7.49-5.31,5.68-3.75,10.71S1216.68,1005.8,1220.3,1004.91Z"/><path class="cls-3" d="M1241.53,969.25c-1.65,4.51,2.32,10.2,9,12.47s13.24.59,14.8-3.9-2.47-10-9-12.31S1243.17,964.75,1241.53,969.25Z"/><path class="cls-3" d="M1249.56,958.34c5.19-.16,9.25-3.5,8.91-7.08s-4.73-6.46-9.93-6.23-9.19,3.33-8.92,7S1244.36,958.53,1249.56,958.34Z"/><path class="cls-3" d="M1233.28,998.15c4.72,5.14,11.58,6.82,15.27,3.73s2.86-9.76-1.83-14.88-11.39-6.93-15.08-3.93S1228.63,992.86,1233.28,998.15Z"/><path class="cls-4" d="M1352.38,906.46c-.05-5.58-4.43-15.33-12.43-21.46s-17.19-7.38-20.23-3,1.85,14.29-.25,19.54-9,11-8.22,18.14,19.44,6.48,27.68,3.26S1352.45,915.31,1352.38,906.46Z"/><path class="cls-4" d="M1351.59,942.51c3-2.22,2.65-7.29-.74-11.33s-8.53-5.51-11.52-3.29-2.7,7.29.68,11.33S1348.6,944.73,1351.59,942.51Z"/><path class="cls-4" d="M1357.4,901.42c.22,4.8,6.08,8.51,13.1,8s12.44-4.57,12.15-9.32-6.15-8.27-13.09-7.86S1357.17,896.63,1357.4,901.42Z"/><path class="cls-4" d="M1360.59,888.25c4.73-2.15,7.18-6.8,5.48-10s-6.85-4.13-11.56-1.91-7.19,6.62-5.52,9.9S1355.87,890.44,1360.59,888.25Z"/><path class="cls-4" d="M1361,931.26c6.35,2.92,13.32,1.82,15.53-2.45s-1.14-10.11-7.43-13-13.19-2-15.44,2.2S1354.63,928.18,1361,931.26Z"/><path class="cls-4" d="M834.76,916.7C831.79,912,823,906,812.92,905s-18.5,2.74-18.82,8,9.07,11.19,10,16.77-1.86,14.09,2.52,19.75,20-4.68,25.27-11.75S839.46,924.19,834.76,916.7Z"/><path class="cls-4" d="M853,947.8c1.38-3.46-1.58-7.59-6.58-9.26s-10.15-.21-11.53,3.25,1.52,7.62,6.52,9.28S851.63,951.26,853,947.8Z"/><path class="cls-4" d="M836.39,909.77c2.71,4,9.64,4.05,15.36,0s8.19-10.43,5.46-14.31-9.57-3.82-15.27.17S833.68,905.81,836.39,909.77Z"/><path class="cls-4" d="M832.2,896.88c2.89-4.3,2.54-9.55-.57-11.36s-8,.08-10.84,4.44-2.66,9.41.49,11.33S829.33,901.22,832.2,896.88Z"/><path class="cls-4" d="M855.07,933.31c6.94-.84,12.29-5.44,11.93-10.24s-6.27-8-13.16-7.18-12.27,5.22-12,10S848.07,934,855.07,933.31Z"/><path class="cls-1" d="M1579.72,572.62c3.2-4.57,12.32-10.13,22.39-10.66s18.34,3.65,18.41,8.94-9.62,10.73-10.86,16.25,1.16,14.17-3.49,19.6-19.7-5.65-24.67-13S1574.65,579.88,1579.72,572.62Z"/><path class="cls-1" d="M1560,602.79c-1.21-3.52,2-7.51,7-8.92s10.15.28,11.36,3.8-1.89,7.54-7,9S1561.17,606.31,1560,602.79Z"/><path class="cls-1" d="M1578.43,565.62c-2.9,3.83-9.83,3.57-15.34-.79s-7.67-10.81-4.75-14.56,9.75-3.34,15.24.93S1581.33,561.8,1578.43,565.62Z"/><path class="cls-1" d="M1583.25,553c-2.68-4.45-2.07-9.67,1.13-11.32s8,.47,10.61,5,2.18,9.53-1,11.29S1585.9,557.43,1583.25,553Z"/><path class="cls-1" d="M1558.61,588.21c-6.88-1.18-12-6-11.41-10.81s6.66-7.69,13.5-6.53,12,5.82,11.48,10.55S1565.57,589.25,1558.61,588.21Z"/><path class="cls-1" d="M833.76,581.74c1.46-5.39,8.18-13.7,17.48-17.59s18.5-2.76,20.34,2.2-5.43,13.35-4.74,19,5.88,12.94,3.33,19.62-20.45,1.33-27.59-3.89S831.44,590.27,833.76,581.74Z"/><path class="cls-1" d="M825.34,616.8c-2.33-2.91-.7-7.72,3.6-10.77s9.65-3.15,12-.25.75,7.74-3.55,10.78S827.67,619.71,825.34,616.8Z"/><path class="cls-1" d="M830.19,575.58c-1.44,4.59-8.05,6.68-14.72,4.43s-10.86-7.59-9.37-12.1,8-6.43,14.66-4.27S831.62,571,830.19,575.58Z"/><path class="cls-1" d="M830.45,562c-4-3.28-5.21-8.4-2.76-11s7.67-2.25,11.67,1.09,5.27,8.24,2.82,11S834.46,565.35,830.45,562Z"/><path class="cls-1" d="M819.15,603.53c-6.88,1.21-13.34-1.62-14.39-6.32s3.67-9.49,10.5-10.7,13.26,1.43,14.37,6.06S826.05,602.17,819.15,603.53Z"/><path class="cls-1" d="M1210.19,606.6c3.2-4.58,12.32-10.14,22.39-10.66s18.35,3.64,18.41,8.93-9.61,10.74-10.86,16.26,1.17,14.17-3.48,19.6-19.7-5.66-24.67-13S1205.13,613.85,1210.19,606.6Z"/><path class="cls-1" d="M1190.44,636.76c-1.21-3.52,1.94-7.51,7-8.92s10.15.29,11.36,3.81-1.9,7.54-7,9S1191.65,640.29,1190.44,636.76Z"/><path class="cls-1" d="M1208.91,599.6c-2.9,3.83-9.83,3.57-15.35-.79s-7.66-10.82-4.74-14.57,9.74-3.33,15.24.93S1211.8,595.78,1208.91,599.6Z"/><path class="cls-1" d="M1213.73,586.93c-2.68-4.44-2.07-9.67,1.12-11.32s8,.47,10.62,5,2.18,9.53-1,11.29S1216.38,591.41,1213.73,586.93Z"/><path class="cls-1" d="M1189.09,622.19c-6.88-1.19-12-6-11.41-10.81s6.65-7.69,13.5-6.53,12,5.82,11.47,10.55S1196.05,623.23,1189.09,622.19Z"/><path class="cls-2" d="M1648.89,665.91c-.46-5.57,3-15.67,10.41-22.52s16.43-8.92,19.86-4.89-.53,14.4,2,19.44,10,10.15,9.84,17.3-18.76,8.25-27.26,5.79S1649.64,674.72,1648.89,665.91Z"/><path class="cls-2" d="M1653,701.73c-3.19-1.93-3.31-7-.31-11.35s8-6.27,11.17-4.33,3.36,7,.36,11.34S1656.17,703.67,1653,701.73Z"/><path class="cls-2" d="M1643.43,661.34c.22,4.81-5.28,9-12.31,9.21s-12.8-3.42-12.95-8.17,5.36-8.79,12.31-9S1643.22,656.56,1643.43,661.34Z"/><path class="cls-2" d="M1639,648.52c-4.9-1.7-7.77-6.11-6.37-9.42s6.44-4.74,11.33-3,7.78,5.94,6.41,9.36S1643.94,650.27,1639,648.52Z"/><path class="cls-2" d="M1642.63,691.39c-6.05,3.49-13.09,3-15.69-1s.21-10.17,6.21-13.65,12.94-3.19,15.57.77S1648.65,687.74,1642.63,691.39Z"/><path class="cls-2" d="M1130.39,474.46c2.51-5,10.73-11.8,20.62-13.78s18.68,1,19.5,6.18-8,12-8.39,17.66,3.2,13.85-.62,19.89-20.31-2.74-26.29-9.27S1126.43,482.37,1130.39,474.46Z"/><path class="cls-2" d="M1115.2,507.17c-1.71-3.32.84-7.72,5.66-9.85s10.08-1.18,11.79,2.13-.79,7.73-5.61,9.86S1116.9,510.48,1115.2,507.17Z"/><path class="cls-2" d="M1128.11,467.72c-2.32,4.21-9.21,4.95-15.3,1.43s-9.15-9.59-6.79-13.72,9.15-4.71,15.21-1.28S1130.42,463.52,1128.11,467.72Z"/><path class="cls-2" d="M1131.05,454.49c-3.29-4-3.44-9.26-.52-11.36s8-.69,11.22,3.38,3.54,9.12.59,11.32S1134.32,458.54,1131.05,454.49Z"/><path class="cls-2" d="M1111.76,492.93c-7-.17-12.76-4.23-12.86-9s5.48-8.58,12.42-8.42,12.71,4,12.88,8.79S1118.79,493,1111.76,492.93Z"/><path class="cls-2" d="M698.12,481.23c-.07-5.58,4.1-15.42,12-21.72s17-7.74,20.16-3.49-1.55,14.33.67,19.54,9.21,10.83,8.6,17.95-19.29,6.91-27.6,3.86S698.24,490.08,698.12,481.23Z"/><path class="cls-2" d="M699.68,517.26c-3-2.16-2.8-7.24.5-11.35s8.41-5.69,11.44-3.53,2.86,7.23-.44,11.34S702.72,519.41,699.68,517.26Z"/><path class="cls-2" d="M693,476.3c-.13,4.8-5.91,8.63-12.93,8.31s-12.53-4.31-12.35-9.06,6-8.4,12.92-8.14S693.12,471.5,693,476.3Z"/><path class="cls-2" d="M689.52,463.2c-4.77-2.05-7.32-6.65-5.69-9.85s6.76-4.28,11.52-2.16,7.33,6.46,5.73,9.78S694.29,465.28,689.52,463.2Z"/><path class="cls-2" d="M690.08,506.21c-6.28,3.05-13.27,2.1-15.58-2.12s.92-10.14,7.16-13.19,13.13-2.27,15.47,1.88S696.34,503,690.08,506.21Z"/><path class="cls-3" d="M1750.14,571.75c-1.08-5.48,1.25-15.9,7.86-23.52s15.36-10.68,19.21-7.05,1.06,14.37,4.17,19.1,11,9,11.69,16.11-17.74,10.26-26.46,8.76S1751.85,580.43,1750.14,571.75Z"/><path class="cls-3" d="M1758.15,606.91c-3.38-1.57-4.06-6.61-1.55-11.25s7.25-7.11,10.62-5.53,4.11,6.59,1.61,11.23S1761.53,608.49,1758.15,606.91Z"/><path class="cls-3" d="M1744.21,567.82c.74,4.75-4.25,9.56-11.22,10.5s-13.11-2-13.78-6.69,4.36-9.33,11.25-10.33S1743.47,563.08,1744.21,567.82Z"/><path class="cls-3" d="M1738.43,555.56c-5.06-1.15-8.4-5.22-7.37-8.66s5.88-5.43,10.94-4.2,8.38,5,7.4,8.59S1743.5,556.76,1738.43,555.56Z"/><path class="cls-3" d="M1746.72,597.77c-5.63,4.13-12.68,4.46-15.7.71s-.92-10.13,4.66-14.25,12.52-4.6,15.56-.94S1752.3,593.48,1746.72,597.77Z"/><path class="cls-3" d="M1364.08,535.88c2.13-5.16,9.82-12.57,19.54-15.28s18.7-.43,19.91,4.72-7,12.57-7.06,18.23,4.22,13.58.86,19.89-20.46-1.24-26.9-7.3S1360.72,544.06,1364.08,535.88Z"/><path class="cls-3" d="M1351.36,569.62c-1.95-3.18.27-7.75,4.91-10.24s10-1.93,11.92,1.25-.21,7.77-4.86,10.25S1353.31,572.8,1351.36,569.62Z"/><path class="cls-3" d="M1361.31,529.33c-2,4.37-8.82,5.62-15.15,2.56s-9.84-8.89-7.8-13.18,8.78-5.38,15.08-2.41S1363.3,525,1361.31,529.33Z"/><path class="cls-3" d="M1363.25,515.91c-3.58-3.75-4.12-9-1.36-11.29s7.9-1.27,11.44,2.54,4.21,8.83,1.43,11.25S1366.82,519.71,1363.25,515.91Z"/><path class="cls-3" d="M1346.87,555.68c-7,.35-13-3.27-13.49-8.07s4.83-9,11.76-9.31,13,3.08,13.5,7.81S1353.89,555.19,1346.87,555.68Z"/><path class="cls-3" d="M1041.15,584.63c2.13-5.16,9.83-12.57,19.54-15.27s18.7-.43,19.91,4.71-7,12.57-7.06,18.23,4.22,13.58.86,19.89-20.46-1.23-26.9-7.29S1037.79,592.81,1041.15,584.63Z"/><path class="cls-3" d="M1028.43,618.37c-2-3.17.27-7.75,4.92-10.23s10-1.93,11.91,1.24-.21,7.77-4.86,10.25S1030.38,621.55,1028.43,618.37Z"/><path class="cls-3" d="M1038.38,578.08c-2,4.37-8.82,5.62-15.15,2.56s-9.84-8.88-7.8-13.18,8.79-5.37,15.08-2.41S1040.37,573.72,1038.38,578.08Z"/><path class="cls-3" d="M1040.33,564.67c-3.58-3.76-4.12-9-1.37-11.3s7.9-1.27,11.44,2.54,4.21,8.83,1.43,11.25S1043.89,568.46,1040.33,564.67Z"/><path class="cls-3" d="M1023.94,604.44c-7,.34-13-3.28-13.49-8.07s4.83-9,11.76-9.31,13,3.07,13.5,7.8S1031,603.94,1023.94,604.44Z"/><path class="cls-4" d="M1421.65,647.9c3.95-3.94,13.91-7.8,23.92-6.54s17.41,6.82,16.54,12-11.36,8.87-13.56,14.09-1.35,14.15-6.89,18.67-18.39-9-22-17.12S1415.38,654.14,1421.65,647.9Z"/><path class="cls-4" d="M1396.88,674.11c-.57-3.69,3.24-7.05,8.49-7.55s9.93,2.07,10.5,5.75-3.19,7.09-8.44,7.58S1397.45,677.79,1396.88,674.11Z"/><path class="cls-4" d="M1421.62,640.78c-3.53,3.26-10.31,1.78-15-3.48s-5.64-12-2.1-15.17,10.18-1.57,14.84,3.6S1425.14,637.53,1421.62,640.78Z"/><path class="cls-4" d="M1428.6,629.16c-1.86-4.84-.33-9.88,3.1-10.94s7.78,1.88,9.57,6.76.47,9.77-3,10.93S1430.42,634,1428.6,629.16Z"/><path class="cls-4" d="M1398.12,659.52c-6.56-2.38-10.75-8.06-9.32-12.66s7.91-6.39,14.44-4,10.78,7.84,9.43,12.41S1404.79,661.77,1398.12,659.52Z"/><path class="cls-1" d="M438.15,632.54c-1.09-5.48,1.22-15.91,7.81-23.54s15.34-10.7,19.2-7.09,1.08,14.37,4.2,19.09,11,9,11.73,16.09-17.72,10.3-26.45,8.81S439.87,641.21,438.15,632.54Z"/><path class="cls-1" d="M446.22,667.68c-3.38-1.56-4.07-6.6-1.57-11.24s7.24-7.13,10.61-5.56,4.13,6.59,1.63,11.23S449.6,669.25,446.22,667.68Z"/><path class="cls-1" d="M432.21,628.61c.75,4.75-4.24,9.57-11.2,10.53s-13.11-2-13.79-6.67,4.34-9.34,11.23-10.35S431.46,623.88,432.21,628.61Z"/><path class="cls-1" d="M426.41,616.37c-5.06-1.15-8.41-5.21-7.39-8.66s5.87-5.43,10.94-4.21,8.38,5,7.41,8.57S431.48,617.55,426.41,616.37Z"/><path class="cls-1" d="M434.77,658.56c-5.62,4.14-12.67,4.48-15.7.74s-.94-10.13,4.64-14.26,12.51-4.62,15.56-1S440.34,654.26,434.77,658.56Z"/><path class="cls-1" d="M238.81,656c-1.09-5.48,1.22-15.91,7.81-23.54s15.34-10.71,19.2-7.09,1.08,14.37,4.2,19.09,11,9,11.73,16.09-17.72,10.3-26.45,8.81S240.53,664.67,238.81,656Z"/><path class="cls-1" d="M246.88,691.14c-3.38-1.57-4.07-6.61-1.57-11.25s7.23-7.12,10.61-5.55,4.13,6.59,1.63,11.23S250.26,692.71,246.88,691.14Z"/><path class="cls-1" d="M232.87,652.07c.75,4.75-4.24,9.57-11.2,10.53s-13.11-2-13.79-6.67,4.34-9.34,11.22-10.35S232.12,647.34,232.87,652.07Z"/><path class="cls-1" d="M227.07,639.83c-5.06-1.15-8.41-5.21-7.39-8.66s5.87-5.43,10.94-4.21,8.38,5,7.41,8.57S232.13,641,227.07,639.83Z"/><path class="cls-1" d="M235.43,682c-5.62,4.14-12.67,4.48-15.7.74s-.94-10.13,4.64-14.26,12.51-4.62,15.56-1S241,677.72,235.43,682Z"/><path class="cls-3" d="M622.9,595.07c-2.25-5.11-2.26-15.79,2.52-24.67s12.64-13.78,17.19-11.09,4.18,13.79,8.26,17.72,12.71,6.36,14.94,13.15-15.06,13.9-23.9,14.35S626.47,603.16,622.9,595.07Z"/><path class="cls-3" d="M638.43,627.62c-3.64-.79-5.41-5.56-4-10.64s5.51-8.52,9.15-7.73,5.46,5.54,4,10.61S642.07,628.41,638.43,627.62Z"/><path class="cls-3" d="M616.25,592.53c1.77,4.47-2,10.26-8.64,12.71s-13.22.94-14.91-3.51,2.21-10.06,8.71-12.54S614.49,588.08,616.25,592.53Z"/><path class="cls-3" d="M607.93,581.84c-5.19,0-9.34-3.25-9.09-6.84s4.55-6.58,9.75-6.49,9.28,3.08,9.11,6.76S613.13,581.9,607.93,581.84Z"/><path class="cls-3" d="M625.27,621.2c-4.59,5.27-11.39,7.14-15.17,4.14s-3.11-9.68,1.43-14.92,11.2-7.23,15-4.33S629.77,615.8,625.27,621.2Z"/><path class="cls-4" d="M523.77,520.72c-.1-5.58,4-15.44,11.85-21.78s17-7.83,20.14-3.59-1.47,14.33.77,19.53,9.27,10.78,8.7,17.91-19.26,7-27.58,4S523.94,529.57,523.77,520.72Z"/><path class="cls-4" d="M525.52,556.74c-3-2.14-2.84-7.22.43-11.35s8.38-5.73,11.43-3.59,2.9,7.21-.38,11.34S528.57,558.88,525.52,556.74Z"/><path class="cls-4" d="M518.62,515.81c-.1,4.81-5.86,8.67-12.88,8.38s-12.56-4.24-12.4-9,5.92-8.43,12.88-8.21S518.71,511,518.62,515.81Z"/><path class="cls-4" d="M515.07,502.74c-4.78-2-7.36-6.61-5.74-9.82s6.73-4.32,11.5-2.23,7.37,6.43,5.79,9.76S519.85,504.8,515.07,502.74Z"/><path class="cls-4" d="M515.86,545.74c-6.27,3.09-13.26,2.18-15.59-2s.87-10.13,7.08-13.22,13.13-2.34,15.49,1.79S522.1,542.49,515.86,545.74Z"/><path class="cls-2" d="M323.1,596.54c-4.35-3.5-9.27-13-9.11-23.07s4.9-18.05,10.18-17.75,10.05,10.33,15.47,11.95,14.22-.2,19.32,4.82-7,19.26-14.63,23.72S330,602.09,323.1,596.54Z"/><path class="cls-2" d="M351.83,618.32c-3.59,1-7.35-2.46-8.41-7.62s1-10.11,4.57-11.07,7.39,2.41,8.45,7.57S355.43,617.35,351.83,618.32Z"/><path class="cls-2" d="M316,597.34c3.63,3.16,2.89,10.06-1.84,15.26s-11.31,6.9-14.85,3.73-2.66-10,2-15.14S312.41,594.19,316,597.34Z"/><path class="cls-2" d="M303.72,591.67c-4.62,2.36-9.79,1.4-11.22-1.9s1-7.94,5.68-10.25,9.66-1.53,11.19,1.82S308.36,589.33,303.72,591.67Z"/><path class="cls-2" d="M337.2,618.67c-1.65,6.78-6.84,11.56-11.57,10.64s-7.21-7.17-5.59-13.92,6.63-11.56,11.31-10.72S338.72,611.79,337.2,618.67Z"/><path class="cls-1" d="M90.62,783.69c-4.91-2.66-11.47-11.09-13.14-21S79,744,84.26,743.35s11.76,8.33,17.39,8.94,13.94-2.78,19.87,1.23-3.38,20.21-10.08,26S98.4,787.89,90.62,783.69Z"/><path class="cls-1" d="M122.84,799.88c-3.36,1.61-7.68-1.08-9.66-6s-.88-10.12,2.49-11.72,7.7,1,9.68,5.91S126.2,798.28,122.84,799.88Z"/><path class="cls-1" d="M83.81,785.76c4.14,2.44,4.67,9.36,1,15.33s-9.87,8.85-13.92,6.37-4.43-9.29-.82-15.24S79.69,783.32,83.81,785.76Z"/><path class="cls-1" d="M70.68,782.41c-4.11,3.17-9.37,3.16-11.37.17s-.44-8,3.72-11.11,9.22-3.25,11.34-.24S74.83,779.27,70.68,782.41Z"/><path class="cls-1" d="M108.51,802.88c-.39,7-4.63,12.62-9.44,12.57s-8.4-5.74-8-12.67,4.41-12.58,9.17-12.6S108.75,795.85,108.51,802.88Z"/><path class="cls-3" d="M96.83,657.36c-2.72-4.88-3.72-15.51.21-24.79s11.3-14.91,16.09-12.65,5.44,13.35,9.86,16.88,13.25,5.15,16.1,11.71-13.7,15.24-22.46,16.51S101.13,665.09,96.83,657.36Z"/><path class="cls-3" d="M115.31,688.33c-3.7-.45-5.9-5-5-10.22s4.69-9,8.39-8.55,6,5,5,10.19S119,688.78,115.31,688.33Z"/><path class="cls-3" d="M90,655.46c2.18,4.28-1.09,10.4-7.43,13.45s-13.07,2.16-15.16-2.11,1.26-10.22,7.5-13.3S87.8,651.18,90,655.46Z"/><path class="cls-3" d="M80.69,645.58c-5.17.47-9.6-2.37-9.69-6s3.92-7,9.11-7.37,9.53,2.2,9.69,5.88S85.88,645.15,80.69,645.58Z"/><path class="cls-3" d="M101.61,683.16c-4.08,5.67-10.68,8.16-14.71,5.53s-4-9.35,0-15,10.48-8.24,14.51-5.71S105.59,677.36,101.61,683.16Z"/><path class="cls-4" d="M924.48,467.16c2.84-4.8,11.51-11,21.51-12.33s18.57,2.25,19,7.52-8.78,11.43-9.6,17,2.24,14-2,19.81-20.07-4.14-25.58-11.07S920,474.78,924.48,467.16Z"/><path class="cls-4" d="M907.06,498.74c-1.47-3.42,1.37-7.64,6.33-9.43s10.14-.48,11.61,2.94-1.32,7.66-6.27,9.45S908.54,502.16,907.06,498.74Z"/><path class="cls-4" d="M922.66,460.28c-2.6,4-9.53,4.31-15.36.37s-8.46-10.2-5.83-14.16,9.46-4.06,15.27-.22S925.26,456.25,922.66,460.28Z"/><path class="cls-4" d="M926.51,447.28c-3-4.22-2.8-9.48.26-11.37s8-.13,11,4.15,2.9,9.34-.19,11.34S929.49,451.55,926.51,447.28Z"/><path class="cls-4" d="M904.61,484.31c-7-.66-12.43-5.11-12.2-9.92s6.06-8.17,13-7.53,12.4,4.89,12.24,9.65S911.63,484.82,904.61,484.31Z"/></svg>