<svg id="Capa_1" data-name="Capa 1" xmlns="http://www.w3.org/2000/svg" viewBox="0 0 1000 1000"><path d="M178,444.13V402.07a23,23,0,0,0-45.93,0v42.06A283,283,0,0,0,167,580.33a23,23,0,1,0,40.23-22.16A237.06,237.06,0,0,1,178,444.13Z"/><path d="M286.17,643.17A239.93,239.93,0,0,1,249.75,614,23,23,0,1,0,217.7,646.9a285.26,285.26,0,0,0,43.41,34.75,23,23,0,1,0,25.06-38.48Z"/><path d="M858.76,302.56H730.25l.46,141.57C730.71,617.19,589.91,758,416.85,758H400C226.9,758,86.1,617.19,86.1,444.13c0,0,1.74-126.28,2.45-141.57H40.17V444.13c0,198.39,161.4,359.78,359.79,359.78h16.89c154.84,0,287.14-98.32,337.76-235.81H858.76c73.2,0,132.74-59.54,132.74-132.81S932,302.56,858.76,302.56Zm0,219.61H768a359.13,359.13,0,0,0,8.63-78V348.49h82.12a86.84,86.84,0,0,1,0,173.68Z"/><path d="M825.47,884.16h-794a23,23,0,0,1,0-45.93h794a23,23,0,0,1,0,45.93Z"/><path d="M87.82,176.78c42.77,26.83,89.18,52.84,130.92,80,14.9,9.67,28.37,11.4,44.76,4.89q146.58-58.26,293.43.07c16.41,6.52,28.79,8.81,43.22-1.49,41.6-29.69,90.87-56.64,129.14-83.34.63,5.2,1.51,58.91,1.59,94.89,1.72-.48,28.92.42,45.55,0-.09-39.72-.17-56,.27-95.76.25-23.18-6.34-42-27.36-53.44-21.6-11.73-41.58-6.76-60.86,7Q634.83,167.7,580.3,204.63c-4.58,3.08-12.85,4.14-18.06,2.31C460.6,171.18,359,170.65,257.45,206.66c-9.42,3.34-15.81,2.2-23.64-3.38-36.14-25.77-72.68-50.95-109.09-76.33-17.69-12.33-36.52-15-55.9-4.89C49,132.44,40.28,149.67,40.29,171.89c0,41.66,0,58.21-.12,99.86,18.81,0,28.39,0,47.65,0C87.93,236,87.33,181.63,87.82,176.78Z"/></svg>